HIERARCHY
ROOT root
{
	OFFSET	0	13.1	24.9
	CHANNELS 6  Xposition Yposition Zposition Xrotation Yrotation Zrotation
	JOINT spine_1
	{
		OFFSET	0	9.99999	0
		CHANNELS 3  Xrotation Yrotation Zrotation
		JOINT spine_2
		{
			OFFSET	0	112	-10
			CHANNELS 3  Xrotation Yrotation Zrotation
			JOINT spine_3
			{
				OFFSET	0	206.5	19.3
				CHANNELS 3  Xrotation Yrotation Zrotation
				JOINT spine_4
				{
					OFFSET	0	110.4	14.6
					CHANNELS 3  Xrotation Yrotation Zrotation
					JOINT neck_1
					{
						OFFSET	0	71.8	-50.3
						CHANNELS 3  Xrotation Yrotation Zrotation
						JOINT neck_2
						{
							OFFSET	0	86.2	-25.8
							CHANNELS 3  Xrotation Yrotation Zrotation
							JOINT head_ee
							{
								OFFSET	0	179.8	-8.7
								CHANNELS 3  Xrotation Yrotation Zrotation
								End Site
								{
									OFFSET	1	0	0
								}
							}
						}
					}
					JOINT left_clavicle
					{
						OFFSET	-43.2	22.4	-70.8
						CHANNELS 3  Xrotation Yrotation Zrotation
						JOINT left_shoulder
						{
							OFFSET	-93.9	-5.79999	48.7
							CHANNELS 3  Xrotation Yrotation Zrotation
							JOINT left_elbow
							{
								OFFSET	-291.4	-30.8	15.2
								CHANNELS 3  Xrotation Yrotation Zrotation
								JOINT left_lowarm_twist
								{
									OFFSET	-110.7	-3.89999	13.6
									CHANNELS 3  Xrotation Yrotation Zrotation
									JOINT left_hand
									{
										OFFSET	-110.7	-3.89999	13.6
										CHANNELS 3  Xrotation Yrotation Zrotation
										JOINT left_ee
										{
											OFFSET	-80.8	-5.10001	12.1
											CHANNELS 3  Xrotation Yrotation Zrotation
											End Site
											{
												OFFSET	1	0	0
											}
										}
									}
								}
							}
						}
					}
					JOINT right_clavicle
					{
						OFFSET	43.2	22.4	-70.8
						CHANNELS 3  Xrotation Yrotation Zrotation
						JOINT right_shoulder
						{
							OFFSET	93.9	-5.79999	48.7
							CHANNELS 3  Xrotation Yrotation Zrotation
							JOINT right_elbow
							{
								OFFSET	291.4	-30.8	15.2
								CHANNELS 3  Xrotation Yrotation Zrotation
								JOINT right_lowarm_twist
								{
									OFFSET	110.7	-3.89999	13.6
									CHANNELS 3  Xrotation Yrotation Zrotation
									JOINT right_hand
									{
										OFFSET	110.7	-3.89999	13.6
										CHANNELS 3  Xrotation Yrotation Zrotation
										JOINT right_ee
										{
											OFFSET	80.8	-5.10001	12.1
											CHANNELS 3  Xrotation Yrotation Zrotation
											End Site
											{
												OFFSET	1	0	0
											}
										}
									}
								}
							}
						}
					}
				}
			}
		}
	}
	JOINT left_hip
	{
		OFFSET	-82.8	-127.5	0.300001
		CHANNELS 3  Xrotation Yrotation Zrotation
		JOINT left_knee
		{
			OFFSET	-28.2	-396.7	2.2
			CHANNELS 3  Xrotation Yrotation Zrotation
			JOINT left_ankle
			{
				OFFSET	-11.7	-411.3	35.4
				CHANNELS 3  Xrotation Yrotation Zrotation
				JOINT left_toes
				{
					OFFSET	0	-60	-88.6
					CHANNELS 3  Xrotation Yrotation Zrotation
					JOINT left_foot_ee
					{
						OFFSET	-22.5	-16.5	-42.2
						CHANNELS 3  Xrotation Yrotation Zrotation
						End Site
						{
							OFFSET	1	0	0
						}
					}
				}
			}
		}
	}
	JOINT right_hip
	{
		OFFSET	82.8	-127.5	0.300001
		CHANNELS 3  Xrotation Yrotation Zrotation
		JOINT right_knee
		{
			OFFSET	28.2	-396.7	2.2
			CHANNELS 3  Xrotation Yrotation Zrotation
			JOINT right_ankle
			{
				OFFSET	11.7	-411.3	35.4
				CHANNELS 3  Xrotation Yrotation Zrotation
				JOINT right_toes
				{
					OFFSET	0	-60	-88.6
					CHANNELS 3  Xrotation Yrotation Zrotation
					JOINT right_foot_ee
					{
						OFFSET	22.5	-16.5	-42.2
						CHANNELS 3  Xrotation Yrotation Zrotation
						End Site
						{
							OFFSET	1	0	0
						}
					}
				}
			}
		}
	}
}
MOTION
Frames: 14
Frame Time: 0.02
1372.05 701.618 -1475.22 -3.35534885457 33.7812270236 4.86245199816 0.381147 -0.819079 -3.59888 0.388159 -0.588569 -3.64363 0.429016 0.162587 -3.68722 0.410295 -0.42138 -3.66669 -17.9174 8.71706 9.35887 -17.8214 11.6898 12.0229 -0.0 0.0 -0.0 10.475 1.92148 20.5193 -1.733 -26.513 52.9937 2.53609 -51.4724 1.22267 11.986 0.265709 -1.50526 -1.6889 0.0768777 -11.3184 -0.0 0.0 -0.0 1.68651 3.15165 -2.96188 -24.1699 20.0736 -64.5421 0.396295 11.1069 -0.0385319 -67.0371 6.16861 -5.26584 0.583681 2.52714 -2.85255 0.0 0.0 0.0 -5.87812 -1.54636 1.64844 -14.9404 0.321584 2.26375 16.7477 18.6519 -2.36506 40.0103 -0.0 -0.0 -0.0 0.0 -0.0 30.3349 11.1625 -0.281486 1.40113 0.0602278 0.206566 12.208 -1.04627 1.73337 -30.6658 0.0 0.0 0.0 0.0 0.0 
1342.9945064 694.356 -1518.87501598 -2.91346929284 37.5411181117 4.81981430908 0.15449 -0.95284 -3.76149 0.162079 -0.711735 -3.81439 0.213866 0.0909614 -3.87906 0.193253 -0.522344 -3.84486 -15.9554 9.87046 9.69996 -15.8518 13.3336 12.5082 -0.0 0.0 -0.0 10.479 -3.05757 20.7899 -3.94086 -23.4159 53.5723 2.37255 -49.5998 1.09639 11.2714 0.258747 -1.41426 -1.76724 -0.428761 -12.0861 -0.0 0.0 -0.0 2.47065 2.94978 -4.52968 -25.2404 21.7025 -62.4175 0.399126 11.1842 -0.0390792 -67.2085 6.19039 -5.26848 0.762559 1.65322 -4.41849 0.0 0.0 0.0 -7.20771 -1.39245 0.870953 -18.1058 0.313374 2.74928 16.1784 17.3635 -2.2802 40.1513 -0.0 -0.0 -0.0 0.0 -0.0 31.9168 10.3775 -1.709 -9.04313 -0.26538 -1.36103 14.2937 0.958104 2.02211 -25.7848 0.0 0.0 0.0 0.0 0.0 
1323.06887264 692.218 -1547.62251196 -2.25899486933 38.204131305 4.14716862397 0.00676941 -0.805845 -3.75077 0.014417 -0.565717 -3.79436 0.0563622 0.240564 -3.8287 0.0360973 -0.366674 -3.8187 -12.6114 11.2644 8.94278 -12.5337 15.7608 11.8052 -0.0 0.0 -0.0 10.5112 -4.59909 20.9073 -5.61563 -21.9196 54.6177 2.20741 -47.5507 0.972548 10.8915 0.254584 -1.36591 -1.806 -0.799823 -12.5228 -0.0 0.0 -0.0 2.75413 2.3219 -5.13746 -26.443 23.3073 -61.7279 0.407956 11.4252 -0.0408104 -68.0642 6.29925 -5.28069 0.795574 0.806149 -4.98993 0.0 0.0 0.0 -7.98027 -1.48983 0.54194 -20.1606 0.293696 3.06392 16.6361 19.042 -2.35357 40.1536 -0.0 -0.0 -0.0 0.0 -0.0 31.6751 9.97659 -2.6762 -12.5261 -0.309813 -1.89354 6.8414 2.23142 0.998697 -24.7391 0.0 0.0 0.0 0.0 0.0 
1303.35811474 695.706 -1577.0138354 -1.92525892026 39.0458672009 3.50006869057 -0.0390582 -0.508601 -3.46645 -0.03242 -0.287128 -3.49175 -0.011385 0.454235 -3.47399 -0.0282096 -0.0997681 -3.5021 -11.6767 11.9726 9.54963 -11.5574 16.5101 12.4533 -0.0 0.0 -0.0 9.92607 -3.51836 19.6319 -7.52854 -20.7065 57.0695 2.21963 -47.7081 0.981575 7.89858 0.210593 -0.986183 -1.77068 -0.390171 -12.0918 -0.0 0.0 -0.0 2.93002 1.00041 -5.57737 -26.8337 24.5455 -61.1505 0.510665 14.1964 -0.0635909 -69.4724 6.4787 -5.29721 0.980733 0.5206 -6.35205 0.0 0.0 0.0 -8.48572 -1.00312 0.0698983 -21.507 0.274686 3.26964 16.3635 19.9362 -2.32519 40.0878 -0.0 -0.0 -0.0 0.0 -0.0 30.7158 7.11337 -2.20732 -14.1839 -0.319574 -2.1477 0.112378 3.79211 0.0168211 -21.6194 0.0 0.0 0.0 0.0 0.0 
1280.05974257 694.433 -1598.36968681 -0.810300607469 38.7906062694 2.37636412818 -0.104843 -0.457761 -3.6485 -0.0974664 -0.22483 -3.67019 -0.0791577 0.557195 -3.63466 -0.0975886 -0.0234207 -3.67699 -10.5343 12.2227 8.73769 -10.4384 17.2582 11.5928 -0.0 0.0 -0.0 9.20496 -3.88948 18.1214 -9.53529 -20.6791 59.748 2.1644 -46.989 0.940953 5.50671 0.161214 -0.684655 -1.57767 2.742 -9.33919 -0.0 0.0 -0.0 2.93648 0.495532 -5.62492 -27.314 25.0676 -58.8761 0.581219 16.0623 -0.0820078 -71.1604 6.6942 -5.31116 1.08472 -0.333233 -7.39953 0.0 0.0 0.0 -7.89035 0.561983 0.479065 -25.6031 0.187214 3.89199 14.9423 20.2883 -2.13765 39.9831 -0.0 -0.0 -0.0 0.0 -0.0 29.4638 4.6855 -2.05144 -15.4893 -0.322082 -2.34795 -7.06965 5.51876 -1.08225 -20.3106 0.0 0.0 0.0 0.0 0.0 
1255.56256491 705.533 -1627.79868975 -0.351836168545 39.9866823334 1.58446895842 -0.157934 -0.230193 -3.30899 -0.151844 -0.0192847 -3.31692 -0.147746 0.687379 -3.24505 -0.1624 0.166552 -3.31279 -10.43 12.2681 9.90197 -10.261 16.5365 12.7015 -0.0 0.0 -0.0 9.25377 -1.38391 18.1688 -12.3314 -19.5999 61.1336 2.02431 -45.0745 0.840111 2.68515 0.0868384 -0.331939 -1.42034 3.54181 -7.91974 -0.0 0.0 -0.0 3.21611 -0.0414315 -6.20159 -27.1627 25.6476 -58.2146 0.64037 17.6002 -0.0991365 -71.8835 6.78658 -5.31518 1.09488 -1.30665 -7.86092 0.0 0.0 0.0 -6.93894 0.0136871 0.656194 -27.1548 0.142485 4.12592 14.7867 20.1512 -2.11549 40.1322 -0.0 -0.0 -0.0 0.0 -0.0 25.854 1.51917 -1.61342 -14.5695 -0.32079 -2.20685 -8.38944 8.69043 -1.30741 -18.6656 0.0 0.0 0.0 0.0 0.0 
1241.51748939 713.351 -1647.41310897 0.280814615551 39.7411282495 1.10922194544 -0.274064 -0.123351 -3.19324 -0.268395 0.0799877 -3.19461 -0.270089 0.765057 -3.10278 -0.283425 0.265691 -3.18456 -10.4445 12.4711 9.50005 -10.3061 17.1961 12.3722 -0.0 0.0 -0.0 9.3992 -1.90102 18.4845 -15.0081 -18.8331 62.1018 1.82983 -42.1864 0.705872 0.623114 0.021538 -0.0766665 -1.41175 4.20646 -7.55927 -0.0 0.0 -0.0 3.32657 -0.512259 -6.44363 -26.0768 26.5599 -58.1016 0.688779 18.8397 -0.114273 -72.7634 6.89904 -5.31849 1.13191 -1.63176 -8.24035 0.0 0.0 0.0 -6.1133 0.660906 1.51924 -27.5771 0.129215 4.18938 15.6318 21.7754 -2.24448 40.0857 -0.0 -0.0 -0.0 0.0 -0.0 23.9675 -0.885512 -1.68341 -14.1033 -0.319269 -2.13532 -13.3764 7.85402 -2.08897 -18.8803 0.0 0.0 0.0 0.0 0.0 
1221.18181076 713.691 -1668.67870495 -0.0308016309328 39.8262487796 1.02318424554 0.0230714 -0.236838 -3.03092 0.0281806 -0.043584 -3.03984 0.0328034 0.595102 -2.98139 0.0204197 0.117005 -3.0379 -10.1743 12.8798 7.95238 -10.1273 18.952 10.9611 -0.0 0.0 -0.0 9.23592 -0.683505 18.1105 -16.9928 -18.0493 63.0995 1.62121 -38.7649 0.570393 -0.896535 -0.0324505 0.109893 -1.63817 8.93453 -6.86255 -0.0 0.0 -0.0 2.99123 -0.624986 -5.80607 -24.2539 26.864 -58.1067 0.736783 20.0511 -0.130255 -73.3873 6.97878 -5.31979 1.16832 -1.90763 -8.59544 0.0 0.0 0.0 -4.73077 -1.51859 1.82394 -30.0574 0.0418646 4.55997 14.1613 21.8019 -2.04461 39.6623 -0.0 -0.0 -0.0 0.0 -0.0 22.1027 -2.31848 -1.35239 -13.8689 -0.318284 -2.09938 -9.25012 11.5313 -1.46805 -18.8581 0.0 0.0 0.0 0.0 0.0 
1207.71227913 715.93 -1683.08082343 0.761546349931 38.9019469661 0.0541867839097 -0.104562 -0.12255 -2.86882 -0.0999851 0.0601722 -2.8708 -0.100937 0.667677 -2.79279 -0.111755 0.218419 -2.86312 -11.1828 12.339 9.86141 -11.0396 16.8843 12.7814 -0.0 0.0 -0.0 9.11365 -0.144315 17.8425 -18.5915 -17.6309 64.3285 1.51871 -36.9525 0.507478 -2.48839 -0.0942961 0.303732 -1.43797 7.52385 -6.21302 -0.0 0.0 -0.0 3.61693 1.12302 -6.90958 -23.2392 26.9744 -56.3202 0.730333 19.8894 -0.128052 -73.4901 6.99193 -5.31992 1.28188 -1.81734 -9.32371 0.0 0.0 0.0 -3.48126 -0.917862 1.82633 -31.6794 -0.0239151 4.80019 13.8761 22.7603 -2.01426 39.8598 -0.0 -0.0 -0.0 0.0 -0.0 19.8708 -3.48072 -1.23305 -12.8131 -0.312029 -1.93751 -16.3579 9.19341 -2.57979 -18.7274 0.0 0.0 0.0 0.0 0.0 
1195.5939797 725.953 -1704.38055236 1.36090806351 36.4325013751 -0.632739471105 0.00680717 -0.186035 -2.86942 0.0113876 -0.00314616 -2.87544 0.0135798 0.601088 -2.81196 0.0025772 0.149639 -2.87155 -12.7192 12.0205 8.02304 -12.7323 17.8106 11.1839 -0.0 0.0 -0.0 8.21227 0.334449 16.0063 -18.7351 -19.0624 67.5294 1.24975 -31.76 0.355543 -2.67489 -0.101894 0.32633 -1.22239 13.955 -1.91003 -0.0 0.0 -0.0 3.18915 3.7195 -5.89746 -20.7477 28.6425 -57.3636 0.71193 19.4262 -0.121861 -73.9374 7.04909 -5.3202 1.30652 -1.49787 -9.3625 0.0 0.0 0.0 -0.615484 -8.36517 3.04333 -36.1903 -0.242355 5.45759 12.3151 26.7266 -1.83579 40.159 -0.0 -0.0 -0.0 0.0 -0.0 17.8122 -4.07678 -0.684249 -13.6872 -0.317421 -2.07152 -10.6698 15.1987 -1.74148 -19.252 0.0 0.0 0.0 0.0 0.0 
1187.76925227 729.554 -1723.96061767 3.1821635083 34.3387858063 -1.61640520527 -0.349505 -0.391585 -2.95198 -0.34468 -0.203034 -2.9709 -0.331241 0.443243 -2.94468 -0.34334 -0.0271619 -2.97769 -16.769 13.2605 12.0738 -16.708 18.7024 16.0449 -0.0 0.0 -0.0 7.64658 0.528903 14.8729 -18.2353 -19.2546 70.1147 1.02299 -26.8735 0.244412 -2.86177 -0.109582 0.348948 -1.44274 16.6807 -2.03495 -0.0 0.0 -0.0 2.31344 8.34668 -3.7555 -15.0375 28.1213 -60.734 0.749777 20.3758 -0.134745 -72.4578 6.85997 -5.31754 1.28719 0.0820391 -8.59718 0.0 0.0 0.0 4.55331 -6.98497 2.23144 -47.4854 -1.01029 7.0125 16.9192 25.6797 -2.46608 40.1305 -0.0 -0.0 -0.0 0.0 -0.0 16.129 -9.75676 0.76437 -16.4622 -0.320985 -2.49722 -6.02595 20.7279 -1.02433 -18.5375 0.0 0.0 0.0 0.0 0.0 
1182.54294688 733.906 -1744.18619866 3.98832680601 29.490787547 -1.50631790327 -0.624565 0.0150831 -2.87463 -0.619989 0.197897 -2.86786 -0.627495 0.82715 -2.7532 -0.637869 0.38214 -2.84918 -18.5058 14.0486 10.2207 -18.793 21.6432 15.0612 -0.0 0.0 -0.0 7.00832 1.38739 13.604 -17.8168 -19.4793 71.8011 0.79635 -21.5286 0.1514 -1.4569 -0.0536061 0.178321 -1.19003 20.5862 1.23979 -0.0 0.0 -0.0 2.89814 11.7237 -4.6702 -10.5229 27.422 -62.0533 0.729603 19.8711 -0.127804 -71.8352 6.78041 -5.31495 1.25759 -2.22182 -9.32101 0.0 0.0 0.0 9.53955 -9.1051 2.16418 -55.7621 -1.76016 8.04226 12.353 25.6768 -1.82999 38.9609 -0.0 -0.0 -0.0 0.0 -0.0 15.5346 -21.7613 1.97195 -18.3362 -0.311729 -2.78459 -7.23838 28.941 -1.35633 -19.1833 0.0 0.0 0.0 0.0 0.0 
1177.41381682 736.449 -1760.63080063 4.21438011 27.8920391243 -1.2675908883 -0.645248 -0.0155186 -2.72106 -0.641143 0.157596 -2.71654 -0.646393 0.75515 -2.6143 -0.655775 0.332953 -2.70067 -18.9638 14.3542 10.7033 -19.2713 22.0789 15.7349 -0.0 0.0 -0.0 7.24536 3.70777 14.0338 -19.4716 -22.5795 71.1319 0.607846 -16.7577 0.0895301 -1.34445 -0.0493068 0.164605 -1.09849 23.4045 3.00089 -0.0 0.0 -0.0 2.84198 15.6443 -4.19975 -6.85506 27.1294 -62.8668 0.746351 20.2904 -0.133555 -72.1408 6.81946 -5.31633 1.25895 -2.02053 -9.25013 0.0 0.0 0.0 14.5914 -11.6674 3.08846 -60.3306 -2.23579 8.56177 12.4911 23.3513 -1.82712 38.4066 -0.0 -0.0 -0.0 0.0 -0.0 13.437 -13.8284 -0.172472 -18.6252 -0.309466 -2.82887 -0.136796 26.8828 -0.024538 -23.3061 0.0 0.0 0.0 0.0 0.0 
1188.04592155 736.449 -1767.5982961 4.13668727052 25.7892313118 -1.09554678698 -0.645248 -0.0155186 -2.72106 -0.641143 0.157596 -2.71654 -0.646393 0.75515 -2.6143 -0.655775 0.332953 -2.70067 -18.9638 14.3542 10.7033 -19.2713 22.0789 15.7349 -0.0 0.0 -0.0 7.24536 3.70777 14.0338 -19.4716 -22.5795 71.1319 0.607846 -16.7577 0.0895301 -1.34445 -0.0493068 0.164605 -1.09849 23.4045 3.00089 -0.0 0.0 -0.0 2.84198 15.6443 -4.19975 -6.85506 27.1294 -62.8668 0.746351 20.2904 -0.133555 -72.1408 6.81946 -5.31633 1.25895 -2.02053 -9.25013 0.0 0.0 0.0 14.5914 -11.6674 3.08846 -60.3306 -2.23579 8.56177 12.4911 23.3513 -1.82712 38.4066 -0.0 -0.0 -0.0 0.0 -0.0 13.437 -13.8284 -0.172472 -18.6252 -0.309466 -2.82887 -0.136796 26.8828 -0.024538 -23.3061 0.0 0.0 0.0 0.0 0.0 
